Coordinates
version=1
nRows=8
nColumns=36
inDegrees=yes

Units are S.I. units (second, meters, Newtons, ...)
If the header above contains a line with 'inDegrees', this indicates whether rotational values are in degrees (yes) or radians (no).

endheader
time	pelvis_tilt	pelvis_list	pelvis_rotation	pelvis_tx	pelvis_ty	pelvis_tz	hip_flexion_r	hip_adduction_r	hip_rotation_r	knee_angle_r	knee_angle_r_beta	ankle_angle_r	subtalar_angle_r	mtp_angle_r	hip_flexion_l	hip_adduction_l	hip_rotation_l	knee_angle_l	knee_angle_l_beta	ankle_angle_l	subtalar_angle_l	mtp_angle_l	lumbar_extension	lumbar_bending	lumbar_rotation	arm_flex_r	arm_add_r	arm_rot_r	elbow_flex_r	pro_sup_r	arm_flex_l	arm_add_l	arm_rot_l	elbow_flex_l	pro_sup_l
      2.61666670	     -2.86572539	      5.65871925	     -0.10655926	      0.96168402	      0.85973668	     -0.42317372	     43.70220384	     -7.93839915	      3.10952344	     17.99231194	      0.31402508	      3.28541269	      8.63552391	     -7.49999987	     20.97968967	     10.12158883	     -1.05805258	     41.67079404	      0.72729256	     28.89040961	     -5.61095052	     -7.49999987	    -14.45291407	     -9.25680029	     -0.98896515	     41.18694207	      4.16057381	     57.71004927	    125.76300893	    100.16558798	     43.91174672	     -7.59436067	     63.19446170	    126.30000914	     96.11158836
      2.63333330	     -2.99824717	      5.88340885	     -0.24654951	      0.96079817	      0.85584636	     -0.42288088	     44.76142243	     -8.09075179	      3.47498747	     18.75373687	      0.32731446	      2.92006828	      8.74329483	     -7.49999987	     21.65020048	     10.14098290	     -1.51474247	     42.58268839	      0.74320812	     29.56613211	     -5.19043470	     -7.49999987	    -13.98782841	     -9.60285830	     -0.97666193	     41.32115549	      4.83884109	     57.71713564	    125.20458563	    103.30776020	     43.71692734	     -7.67912812	     60.96040782	    125.71522670	     98.77343981
      2.65000000	     -3.15980160	      6.02833235	     -0.36228278	      0.96094838	      0.85271480	     -0.42294528	     45.65479974	     -8.21706072	      3.56923808	     19.32042694	      0.33720506	      2.75286582	      9.19833059	     -7.49999987	     22.36615630	     10.12474493	     -1.83134215	     43.58622800	      0.76072319	     30.22726243	     -4.90857203	     -7.49999987	    -13.58220484	     -9.87238235	     -0.78580068	     41.51308076	      5.06886867	     58.22266862	    125.59149199	    103.20409748	     43.71193559	     -7.68611071	     60.27755630	    125.70865208	     98.36928383
      2.66666670	     -3.08961663	      6.30183597	     -0.44665084	      0.95985503	      0.84951867	     -0.42255552	     46.55000417	     -8.49925881	      3.79405303	     20.15038295	      0.35169053	      2.46987377	      9.21667280	     -7.49999987	     22.99735670	     10.24569804	     -2.23456093	     44.80470582	      0.78198964	     30.79964926	     -4.76363589	     -7.49999987	    -13.64554034	    -10.26425569	     -0.77261944	     41.94022338	      5.20461748	     58.64320177	    125.83762267	    102.07094019	     44.06102435	     -7.51709683	     59.38775814	    125.74052753	     96.99805257
      2.68333330	     -3.18350397	      6.51561132	     -0.44521079	      0.95907266	      0.84584858	     -0.42183528	     47.47222224	     -8.75247606	      3.92300493	     20.93715292	      0.36542225	      2.32782308	      9.21501070	     -7.49999987	     23.88366786	     10.40396510	     -2.42722863	     46.09384948	      0.80448944	     31.29130884	     -4.92112623	     -7.49999987	    -13.67944325	    -10.59378489	     -0.56959117	     42.42874962	      4.45836909	     59.40871516	    126.25943599	     99.50089203	     44.45847084	     -7.69172088	     57.55598214	    125.52186916	     93.79554674
      2.70000000	     -3.04119892	      6.70509103	     -0.52211450	      0.96476555	      0.84669979	     -0.42515194	     47.78645992	     -9.01736582	      3.94425745	     21.33027881	      0.37228360	      2.20425991	      9.21044512	     -7.49999987	     24.03300684	     10.60413431	     -2.47292861	     46.84857460	      0.81766188	     31.72402455	     -5.09399213	     -7.49999987	    -13.90035721	    -10.78048997	     -0.31625956	     43.02915642	      3.70491632	     59.13793898	    126.20212193	     99.57841944	     44.17149202	     -7.47270142	     57.64201274	    126.08375504	     93.95722265
      2.71666670	     -3.18355671	      6.86548151	     -0.56915993	      0.96447013	      0.84663671	     -0.42451694	     48.30058628	     -9.22010903	      4.00579719	     21.67747154	      0.37834325	      2.24267459	      9.25236386	     -7.49999987	     24.43646003	     10.74323083	     -2.61048596	     47.47050627	      0.82851663	     32.06376305	     -5.12045591	     -7.49999987	    -13.77687430	    -11.04083994	      0.35313122	     42.67198935	      3.01140103	     58.48984342	    126.37670201	    102.31283023	     43.78113444	     -7.16798270	     58.21383365	    126.25845006	     98.41373975
      2.73333330	     -3.22596337	      7.00024282	     -0.57956646	      0.96346279	      0.84322652	     -0.42425008	     48.67502676	     -9.43265444	      4.00231108	     21.97487519	      0.38353392	      2.17630476	      9.39279966	     -7.49999987	     24.73077966	     10.86905998	     -2.74174692	     48.03896482	      0.83843811	     32.29493253	     -5.21372931	     -7.49999987	    -13.79662147	    -11.19646016	      0.55057136	     42.82956147	      2.70224065	     58.26965227	    125.98380414	    100.41575170	     43.71185235	     -7.10373040	     57.58463698	    126.09122292	     96.91772222
